<?xml version="1.0" standalone="no"?>
<!DOCTYPE svg PUBLIC "-//W3C//DTD SVG 20010904//EN"
 "http://www.w3.org/TR/2001/REC-SVG-20010904/DTD/svg10.dtd">
<svg version="1.0" xmlns="http://www.w3.org/2000/svg"
 width="250.000000pt" height="250.000000pt" viewBox="0 0 250.000000 250.000000"
 preserveAspectRatio="xMidYMid meet">
<metadata>
Created by potrace 1.14, written by Peter Selinger 2001-2017
</metadata>
<g transform="translate(0.000000,250.000000) scale(0.100000,-0.100000)"
fill="#000000" stroke="none">
<path d="M1167 2336 c-55 -21 -103 -61 -134 -114 -24 -40 -28 -58 -28 -123 0
-67 4 -81 30 -125 99 -159 326 -164 425 -8 101 160 -4 368 -192 380 -39 3 -77
-1 -101 -10z"/>
<path d="M753 1804 c-23 -22 -31 -54 -13 -54 6 0 10 -7 10 -15 0 -21 45 -65
66 -65 11 0 15 -6 11 -20 -3 -11 -1 -20 5 -20 5 0 6 -4 3 -10 -3 -5 -1 -10 4
-10 6 0 11 -12 11 -26 0 -17 -4 -23 -12 -18 -10 6 -10 4 0 -7 6 -7 12 -19 12
-27 0 -7 -6 -10 -12 -7 -7 4 -4 -1 6 -9 15 -12 16 -16 5 -16 -12 0 -12 -2 1
-10 8 -5 10 -10 3 -10 -6 0 -10 -8 -8 -17 2 -10 4 -21 4 -25 1 -3 10 -4 21 -1
19 5 26 -10 21 -40 -1 -5 3 -6 9 -2 6 3 7 12 3 18 -4 7 1 6 11 -2 9 -8 15 -20
12 -28 -3 -8 -1 -11 5 -8 11 7 39 -12 39 -27 0 -5 -6 -6 -12 -2 -9 5 -9 3 1
-9 7 -9 16 -15 20 -13 4 3 8 -10 9 -27 2 -17 8 -35 15 -39 7 -4 8 -8 3 -8 -5
0 -2 -8 5 -17 8 -9 9 -14 3 -10 -13 7 -13 -41 0 -61 4 -7 4 -12 -1 -12 -4 0
-9 -11 -9 -25 -1 -14 2 -22 7 -19 14 8 10 -3 -7 -20 -10 -10 -11 -16 -3 -16 8
0 8 -5 -2 -16 -8 -9 -14 -24 -14 -33 0 -9 -6 -15 -13 -13 -8 1 -11 -2 -7 -8 9
-15 -14 -41 -29 -33 -6 4 -5 -1 3 -11 13 -15 11 -20 -14 -42 -16 -14 -36 -22
-44 -19 -9 3 -12 3 -9 -1 10 -9 -15 -32 -47 -44 -23 -9 -25 -13 -15 -25 7 -8
9 -15 4 -15 -5 0 -1 -5 9 -11 13 -8 15 -14 7 -29 -8 -15 -6 -20 11 -25 12 -4
18 -10 13 -14 -12 -8 -11 -34 1 -43 6 -5 5 -8 -3 -8 -7 0 -10 -5 -6 -11 3 -6
0 -15 -7 -20 -11 -7 -9 -9 6 -9 19 -1 19 -1 2 -11 -15 -9 -16 -13 -5 -26 10
-13 10 -17 1 -20 -7 -3 -13 -20 -13 -38 0 -19 -4 -37 -10 -40 -6 -4 -7 1 -4
12 5 14 4 15 -4 4 -6 -8 -8 -20 -5 -26 5 -15 -25 -47 -38 -39 -5 3 -8 2 -7 -3
2 -4 -5 -19 -15 -33 -9 -13 -17 -20 -17 -15 0 5 -7 0 -15 -13 -14 -18 -22 -21
-60 -15 l-45 6 4 -39 c3 -22 5 -45 5 -51 2 -23 63 -72 97 -79 19 -3 34 -10 34
-15 0 -5 7 -9 15 -9 8 0 15 -4 15 -10 0 -5 14 -10 30 -10 17 0 30 -4 30 -8 0
-10 166 -10 176 0 4 5 29 8 56 8 26 0 48 5 48 10 0 6 10 10 23 10 13 0 27 4
33 10 20 20 100 23 135 6 17 -9 40 -16 51 -16 10 0 18 -4 18 -10 0 -5 23 -10
50 -10 28 0 50 -4 50 -8 0 -10 166 -9 176 1 4 4 18 7 31 7 12 0 23 5 23 10 0
6 9 10 20 10 11 0 20 4 20 9 0 5 15 12 34 15 34 7 95 56 97 79 0 6 2 27 4 45
3 40 -14 50 -57 34 -26 -10 -30 -8 -40 13 -5 12 -21 29 -34 36 -13 6 -26 20
-30 31 -3 10 -12 18 -20 18 -8 0 -14 10 -14 26 0 14 -4 23 -10 19 -14 -9 -12
8 3 24 10 11 10 13 0 7 -8 -4 -13 -1 -13 8 0 9 -5 16 -10 16 -7 0 -10 20 -7
50 2 29 -1 52 -7 54 -8 3 -8 5 0 5 6 1 9 16 8 35 -2 22 2 36 11 40 8 3 11 13
8 27 -4 14 0 25 11 31 22 12 3 50 -21 41 -11 -4 -14 -3 -9 5 5 8 0 12 -14 12
-12 0 -19 4 -16 9 6 9 -17 32 -44 45 -8 4 -4 -2 10 -13 14 -11 20 -21 14 -21
-17 0 -52 44 -49 62 2 10 -1 16 -7 15 -6 -1 -12 7 -14 17 -1 10 -7 22 -12 25
-5 3 -8 14 -7 23 2 10 -2 16 -8 15 -16 -3 -21 34 -5 44 10 6 10 9 1 9 -18 0
-18 130 0 130 8 0 7 4 -3 11 -11 8 -12 12 -2 16 6 2 10 9 6 14 -3 5 -1 9 5 9
5 0 8 8 6 18 -4 24 6 37 17 21 6 -10 7 -7 3 9 -5 18 0 30 23 52 17 16 33 26
36 23 3 -4 6 1 6 10 0 15 13 23 23 15 2 -2 12 5 22 15 15 16 16 20 4 28 -8 5
-9 9 -4 9 6 0 9 27 7 71 -2 44 0 69 6 65 5 -3 12 3 15 14 3 11 1 20 -5 20 -5
0 -6 5 -3 10 3 6 13 10 21 10 20 0 64 45 64 65 0 8 5 15 10 15 19 0 10 35 -15
54 -21 16 -45 19 -175 20 -82 0 -150 -2 -150 -6 0 -5 -13 -8 -29 -8 -17 0 -55
-13 -86 -29 l-56 -29 -56 29 c-30 16 -68 29 -84 29 -16 0 -29 3 -29 8 0 4 -68
7 -152 7 -141 0 -154 -2 -175 -21z"/>
</g>
</svg>
